<?xml version="1.0" standalone="no"?>
<!DOCTYPE svg PUBLIC "-//W3C//DTD SVG 20010904//EN"
 "http://www.w3.org/TR/2001/REC-SVG-20010904/DTD/svg10.dtd">
<svg version="1.0" xmlns="http://www.w3.org/2000/svg"
 width="240.000000pt" height="240.000000pt" viewBox="0 0 240.000000 240.000000"
 preserveAspectRatio="xMidYMid meet">
<metadata>
Created by potrace 1.11, written by Peter Selinger 2001-2013
</metadata>
<g transform="translate(0.000000,240.000000) scale(0.100000,-0.100000)"
fill="#000000" stroke="none">
<path d="M1559 2033 c-74 -46 -79 -153 -9 -205 107 -79 236 56 162 170 -32 49
-104 66 -153 35z"/>
<path d="M610 1710 c-34 -34 -24 -71 22 -89 15 -6 172 -9 392 -9 202 0 370 -2
372 -5 3 -3 -44 -56 -105 -119 l-110 -113 114 -111 115 -110 184 185 185 186
86 -88 c47 -48 85 -91 85 -95 0 -4 -58 -66 -130 -137 -107 -107 -130 -135
-130 -159 0 -32 24 -55 57 -56 16 0 70 48 182 159 87 87 162 168 166 180 3 11
2 27 -2 36 -20 35 -331 339 -360 351 -26 11 -135 14 -568 14 -522 0 -535 0
-555 -20z"/>
<path d="M710 913 c-195 -196 -360 -365 -366 -376 -17 -30 1 -74 32 -81 17 -5
34 0 52 13 15 11 184 177 375 369 l348 349 -42 42 c-23 22 -43 41 -43 40 -1 0
-161 -161 -356 -356z"/>
<path d="M1077 973 c-76 -75 -138 -143 -138 -152 -4 -47 20 -73 61 -66 15 3
77 57 159 139 l134 134 -28 34 c-15 18 -33 36 -40 40 -7 5 -62 -43 -148 -129z"/>
<path d="M1003 480 c-110 -67 -63 -250 65 -250 74 0 132 58 132 133 0 107
-108 172 -197 117z"/>
</g>
</svg>
