<?xml version="1.0" standalone="no"?>
<!DOCTYPE svg PUBLIC "-//W3C//DTD SVG 20010904//EN"
 "http://www.w3.org/TR/2001/REC-SVG-20010904/DTD/svg10.dtd">
<svg version="1.0" xmlns="http://www.w3.org/2000/svg"
 width="200.000000pt" height="200.000000pt" viewBox="0 0 200.000000 200.000000"
 preserveAspectRatio="xMidYMid meet">
<metadata>
Created by potrace 1.11, written by Peter Selinger 2001-2013
</metadata>
<g transform="translate(0.000000,200.000000) scale(0.100000,-0.100000)"
fill="#000000" stroke="none">
<path d="M858 1970 c-151 -24 -314 -89 -432 -174 -75 -53 -198 -181 -249 -259
-52 -77 -101 -186 -129 -283 -20 -69 -23 -100 -22 -254 0 -162 2 -182 28 -265
101 -331 344 -573 673 -671 108 -32 310 -44 430 -24 200 32 369 118 522 264
133 129 223 281 267 453 135 531 -179 1055 -714 1194 -88 23 -286 33 -374 19z
m-55 -158 c38 -19 71 -40 73 -46 2 -6 -20 -83 -49 -170 l-53 -159 -85 -37
c-74 -33 -162 -80 -225 -119 -18 -12 -32 -7 -127 49 -59 34 -107 66 -107 70 0
14 61 155 85 196 41 70 192 183 315 236 73 31 77 30 173 -20z m774 -111 c84
-70 170 -172 211 -249 l32 -59 -98 48 c-96 48 -99 51 -238 206 -96 108 -139
163 -136 175 4 16 14 13 83 -23 43 -22 108 -66 146 -98z m-161 -80 c73 -81
138 -157 145 -169 11 -18 7 -35 -30 -134 -24 -62 -46 -116 -50 -120 -3 -4
-100 -17 -214 -29 l-209 -21 -51 58 c-28 33 -78 86 -109 120 -32 33 -58 67
-58 75 0 8 25 89 56 181 l55 166 87 7 c48 3 92 8 97 10 6 2 42 4 80 4 l70 0
131 -148z m-1110 -352 l104 -61 0 -75 c0 -42 7 -122 15 -178 l16 -103 -83
-130 -83 -130 -27 16 c-75 44 -109 85 -130 157 -24 85 -35 302 -20 387 11 54
77 178 95 178 5 0 55 -27 113 -61z m1231 -226 c67 -106 113 -188 113 -203 0
-10 -194 -377 -205 -388 -11 -11 -209 -32 -273 -30 l-76 3 -102 175 -102 175
60 110 c32 60 68 129 80 151 l21 42 126 12 c69 7 153 16 186 20 125 16 117 19
172 -67z m359 -178 c-16 -140 -94 -313 -196 -439 -60 -74 -149 -152 -159 -140
-5 5 -14 37 -21 71 l-12 62 106 198 107 198 75 40 c41 21 80 45 86 52 18 22
21 15 14 -42z m-1158 -120 c53 -9 100 -20 104 -23 3 -4 50 -82 103 -175 l97
-167 -60 -83 c-49 -68 -64 -81 -83 -79 -13 2 -112 19 -219 38 -107 19 -195 34
-196 34 -6 0 -87 116 -122 174 l-42 69 22 36 c12 20 50 79 85 132 l62 97 76
-19 c42 -10 120 -25 173 -34z m17 -574 c88 -16 180 -39 205 -51 l45 -21 -90 5
c-49 3 -122 14 -162 25 -71 21 -187 69 -168 70 6 1 83 -12 170 -28z"/>
</g>
</svg>
